<svg width="73" height="33" viewBox="0 0 73 33" fill="none" xmlns="http://www.w3.org/2000/svg">
<path d="M9.60938 4.49219L12.0703 4.25781C13.9453 4.59635 15.0911 4.88281 15.5078 5.11719C17.3828 6.28906 18.5026 7.36979 18.8672 8.35938L20.2344 10.4297C20.5729 11.888 20.9115 13.9323 21.25 16.5625C21.0417 19.8438 20.7292 21.6927 20.3125 22.1094C20.026 23.2031 19.6094 24.375 19.0625 25.625C17.8125 28.2031 16.9401 29.7396 16.4453 30.2344C15.4036 31.1458 14.4792 31.6016 13.6719 31.6016C13.3073 31.6797 13.125 31.7969 13.125 31.9531L11.4062 32.6172L11.1719 32.5781C10.0521 32.7344 9.17969 32.8125 8.55469 32.8125H8.04688C7.78646 32.8125 6.79688 32.487 5.07812 31.8359C4.63542 31.6797 4.07552 31.224 3.39844 30.4688C2.85156 30.0781 2.57812 29.7005 2.57812 29.3359C1.84896 28.3203 1.14583 26.6536 0.46875 24.3359C0.182292 23.5547 0.0390625 23.099 0.0390625 22.9688L0 22.3438C0 18.0729 0.625 14.9349 1.875 12.9297C2.29167 12.3568 2.65625 11.3542 2.96875 9.92188L4.375 8.125C4.375 7.44792 5.40365 6.47135 7.46094 5.19531C7.46094 5.0651 8.17708 4.83073 9.60938 4.49219ZM14.8828 5.23438H14.7266V5.46875C15.5078 5.9375 15.9766 6.17188 16.1328 6.17188V6.09375C15.5599 5.52083 15.1432 5.23438 14.8828 5.23438ZM13.3984 5.58594L13.2812 5.70312V5.74219C14.1667 6.36719 15.1953 6.83594 16.3672 7.14844V7.07031C16.1849 6.83594 15.8464 6.6276 15.3516 6.44531C15.3516 6.3151 14.9609 6.11979 14.1797 5.85938C14.0234 5.67708 13.8151 5.58594 13.5547 5.58594H13.3984ZM8.59375 6.67969V6.75781C8.69792 6.75781 9.34896 6.53646 10.5469 6.09375L11.0156 5.9375V5.74219C10.3646 5.74219 9.55729 6.05469 8.59375 6.67969ZM2.92969 19.1016V22.3828C2.92969 24.6484 3.51562 26.1068 4.6875 26.7578C5.85938 27.9297 6.60156 28.5156 6.91406 28.5156C7.69531 28.5156 8.33333 28.763 8.82812 29.2578L9.17969 29.3359L9.60938 29.2578L9.96094 29.6094H10C10.1562 29.6094 10.3516 29.4661 10.5859 29.1797C11.7839 28.9974 12.6042 28.724 13.0469 28.3594C14.8698 26.5365 15.7812 25.5208 15.7812 25.3125C16.875 22.7083 17.4219 21.0677 17.4219 20.3906C18.0469 17.9948 18.5026 16.7969 18.7891 16.7969H18.8672V16.5625C18.8672 16.25 18.6979 15.7552 18.3594 15.0781C18.1771 12.9948 17.9297 11.7188 17.6172 11.25C17.0703 9.76562 15.6641 8.45052 13.3984 7.30469C12.6172 6.9401 12.1484 6.75781 11.9922 6.75781H11.7188C10.5469 7.27865 9.90885 7.53906 9.80469 7.53906C9.72656 7.53906 9.6875 7.64323 9.6875 7.85156C8.22917 8.84115 7.35677 9.49219 7.07031 9.80469L5.15625 12.2656C4.6875 12.8646 4.28385 13.6068 3.94531 14.4922C3.26823 16.0547 2.92969 17.5911 2.92969 19.1016ZM4.33594 10.1172V10.1562H4.41406C6.28906 8.51562 7.22656 7.60417 7.22656 7.42188H7.1875C6.61458 7.42188 5.98958 7.91667 5.3125 8.90625C5.18229 8.90625 4.97396 9.04948 4.6875 9.33594C4.45312 9.33594 4.33594 9.59635 4.33594 10.1172ZM16.8359 7.53906L16.6797 7.69531H16.9922L16.8359 7.53906ZM7.61719 8.32031V8.35938H7.73438C8.46354 8.17708 8.82812 7.95573 8.82812 7.69531L8.75 7.61719H8.63281C7.95573 7.77344 7.61719 8.00781 7.61719 8.32031ZM15.9766 8.04688C15.9766 8.35938 16.3411 8.67188 17.0703 8.98438H17.2266C17.3047 8.98438 17.3438 8.91927 17.3438 8.78906C17.3438 8.58073 16.888 8.33333 15.9766 8.04688ZM18.3984 9.17969L18.2812 9.33594V9.49219C18.2812 9.70052 18.6719 10.5078 19.4531 11.9141L19.0625 10.2734C19.0625 9.54427 18.8672 9.17969 18.4766 9.17969H18.3984ZM3.71094 10.3125L3.63281 10.4297V10.5078H3.82812V10.3125H3.71094ZM3.55469 10.7812H3.4375V10.8984L3.55469 10.8203V10.7812ZM4.41406 11.6016L4.10156 11.9141V12.0703H4.25781C4.41406 12.0703 4.49219 11.9271 4.49219 11.6406V11.6016H4.41406ZM19.8047 12.9688L19.5703 12.7734L19.5312 12.8516V12.8906L19.6484 13.3203H19.8047V12.9688ZM3.125 14.0234V14.2578L3.28125 14.375C3.28125 14.2448 3.45052 13.8802 3.78906 13.2812L3.82812 12.9688H3.71094C3.45052 13.2031 3.25521 13.5547 3.125 14.0234ZM18.8672 17.6562H18.6719V17.8125H18.75L18.8672 17.6953V17.6562ZM19.6484 18.0469H19.5703C19.4661 18.4375 19.4141 18.8802 19.4141 19.375V19.4141H19.4531C19.6094 19.388 19.6875 19.2578 19.6875 19.0234V18.2812L19.6484 18.0469ZM20.2734 20.4688V20.625H20.4297C20.5859 20.0781 20.6641 19.6615 20.6641 19.375V19.2578H20.5469C20.3906 19.2578 20.2995 19.6615 20.2734 20.4688ZM18.0859 20.4688V20.7031H18.2812L18.3984 20.3516L18.3203 19.9609H18.2812C18.151 19.9609 18.0859 20.1302 18.0859 20.4688ZM17.1094 24.3359H17.1875C17.3698 24.3359 17.5391 23.9323 17.6953 23.125C17.9557 22.6823 18.0859 22.0964 18.0859 21.3672V21.25L18.0469 21.1328C17.8125 21.1328 17.5391 22.0443 17.2266 23.8672L17.1875 23.9453L17.1094 24.3359ZM1.71875 22.3828L1.60156 22.4609V22.5L1.71875 22.6172H1.75781L1.875 22.5V22.4609L1.75781 22.3828H1.71875ZM0.585938 22.9688L0.46875 23.125V23.4375L0.546875 23.5156H0.625L0.703125 23.2812V23.0859L0.585938 22.9688ZM16.2891 25.2734L16.3672 25.5859C15.612 26.5755 15.2344 27.1224 15.2344 27.2266H15.5078L15.5469 27.1484H15.5859L15.625 27.2266V27.2656L13.8281 28.75L13.7891 28.8672H13.8281L13.8672 28.9453H13.9453C14.4661 28.763 15.0781 28.3203 15.7812 27.6172C16.4323 26.7839 16.8099 26.0417 16.9141 25.3906V25.2734V25C16.9141 24.8177 16.849 24.7005 16.7188 24.6484H16.6406C16.5104 24.6484 16.3932 24.8568 16.2891 25.2734ZM1.99219 25.5469H1.95312V25.9375C1.95312 26.25 2.1224 26.5234 2.46094 26.7578H2.57812V26.6797C2.57812 26.3151 2.38281 25.9375 1.99219 25.5469ZM15.3516 30.2344V30.3906H15.3906C16.4062 29.7135 16.9141 29.2057 16.9141 28.8672H16.7578C16.1589 29.3359 15.6901 29.7917 15.3516 30.2344ZM10.8594 29.4141V29.4922H11.2891L11.4062 29.3359V29.2578H11.2891C11.0286 29.2578 10.8854 29.3099 10.8594 29.4141ZM7.07031 29.375C7.07031 29.5573 7.2526 29.7135 7.61719 29.8438V29.8047C7.61719 29.5964 7.4349 29.4531 7.07031 29.375ZM4.49219 29.9609H4.41406V30.1172L4.53125 30.1953H4.64844V30.1172L4.49219 29.9609ZM11.3281 31.0547V31.2109H11.5625C12.3958 31.0026 12.8125 30.7292 12.8125 30.3906H12.7734C12.5651 30.3906 12.0833 30.612 11.3281 31.0547ZM9.80469 30.5078L9.21875 30.5859V30.7812H9.80469H10.6641V30.7031C10.6641 30.599 10.4948 30.5339 10.1562 30.5078H9.80469ZM8.35938 30.5469L8.24219 30.625L8.63281 30.7812V30.7031C8.60677 30.599 8.51562 30.5469 8.35938 30.5469ZM13.8672 30.9375L13.7891 31.0547V31.2109H13.9453L14.1016 31.0547L13.9453 30.9375H13.8672ZM4.76562 31.2891V31.3672C4.76562 31.4974 5.20833 31.6927 6.09375 31.9531C7.1875 32.2917 7.92969 32.4609 8.32031 32.4609C8.94531 32.4609 9.89583 32.3177 11.1719 32.0312V31.9531H10.4297L7.77344 32.0703L6.09375 31.4844C5.57292 31.3542 5.13021 31.2891 4.76562 31.2891ZM22.0703 11.7188L22.1484 11.6406C22.7474 11.7448 23.3724 11.7969 24.0234 11.7969H27.2266L27.3438 11.9141C27.1875 12.3828 27.1094 12.7474 27.1094 13.0078V13.6719C27.2135 14.401 27.4219 14.7656 27.7344 14.7656C27.8906 14.4792 28.4115 14.2057 29.2969 13.9453C31.4062 13.0339 33.125 12.5781 34.4531 12.5781C35.3385 12.5781 36.2891 12.9688 37.3047 13.75C38.0599 14.0365 38.7891 14.6484 39.4922 15.5859C40.5599 17.2786 41.0938 19.2708 41.0938 21.5625V21.875L40.8203 24.6875L41.0938 26.7188L40.7031 28.5547V28.6328V28.9453L42.1875 29.0234H42.8516C43.2943 29.0234 43.5547 29.0625 43.6328 29.1406C43.5286 31.0417 43.3333 31.9922 43.0469 31.9922C42.526 32.3047 41.9661 32.4609 41.3672 32.4609H40.5469C39.2969 32.4609 37.9818 32.6302 36.6016 32.9688C35.6901 32.8385 35.2344 32.3828 35.2344 31.6016L35.1953 30.1953C35.1953 29.3359 35.4167 28.7109 35.8594 28.3203C36.0938 27.0443 36.3672 25.8854 36.6797 24.8438L36.9141 21.3672C36.9922 21.3672 37.0312 21.0807 37.0312 20.5078C37.0312 19.8047 36.4714 18.8021 35.3516 17.5C34.4922 17.1354 33.9974 16.9531 33.8672 16.9531C32.3568 16.9531 31.0026 17.5911 29.8047 18.8672C29.7005 18.8672 29.0625 19.5052 27.8906 20.7812C27.526 21.0677 27.3438 21.9401 27.3438 23.3984C27.3958 26.0286 27.487 27.3438 27.6172 27.3438C28.6589 27.526 29.1797 27.7214 29.1797 27.9297V28.0859L28.3203 28.0469L27.6953 28.0859V28.2422C27.6953 28.3464 28.1901 28.4766 29.1797 28.6328C29.362 28.8151 29.4531 29.1146 29.4531 29.5312V29.6094C29.4531 30.2344 29.3229 30.8984 29.0625 31.6016L24.5312 31.6406C24.0885 31.6406 23.763 31.4193 23.5547 30.9766C23.4505 30.4818 23.3333 29.5182 23.2031 28.0859C23.2031 27.9557 23.5938 27.8125 24.375 27.6562L24.5703 27.3828V27.3438C24.5703 27.1875 24.4661 26.9661 24.2578 26.6797V25.4688V23.2422L24.4141 19.6484C24.4141 17.2005 24.3099 15.9766 24.1016 15.9766H23.9062L22.0703 16.2109C21.888 16.2109 21.6406 16.0547 21.3281 15.7422V15.5859C21.4583 15.3776 21.5234 15.1562 21.5234 14.9219L21.4453 13.4766L22.0703 11.7188ZM25.4688 12.4219L22.2656 12.9297V13.0078C22.2656 13.0859 22.4609 13.138 22.8516 13.1641C24.5443 13.1641 25.3906 13.0469 25.3906 12.8125L25.5469 12.5781V12.5H25.4688V12.4219ZM33.2422 13.1641V13.2031C33.4245 13.2031 33.737 13.3594 34.1797 13.6719L34.6094 13.7891L35.8594 13.75L35.8984 13.6719V13.6328C35.8724 13.4766 35.7292 13.3984 35.4688 13.3984H35.3125L34.9219 13.4766C34.349 13.138 33.9323 12.9688 33.6719 12.9688C33.4375 12.9688 33.2943 13.0339 33.2422 13.1641ZM30.5859 13.8672V13.9062L30.6641 14.0234C31.888 13.7109 32.5 13.4766 32.5 13.3203H32.4219C31.849 13.3203 31.237 13.5026 30.5859 13.8672ZM23.0469 13.9062L23.1641 14.0234H23.2422C23.5807 13.9974 23.75 13.9193 23.75 13.7891L23.5547 13.75C23.2161 13.75 23.0469 13.8021 23.0469 13.9062ZM23.3984 14.6875V14.7656L24.1406 14.7266H24.2578C24.5182 14.7266 24.6745 14.7917 24.7266 14.9219V15.0391C24.5964 15.1693 24.5312 15.2995 24.5312 15.4297C24.6615 15.5339 24.8177 15.5859 25 15.5859C25.0781 15.5859 25.1172 15.5339 25.1172 15.4297L25.1562 14.1406L25.1172 14.0234H25C24.8438 14.1276 24.3229 14.3359 23.4375 14.6484L23.3984 14.6875ZM29.8828 14.2578L29.9219 14.2969V14.3359C30.1562 14.2578 30.2734 14.1927 30.2734 14.1406V14.0625H30.1953C29.987 14.1146 29.8828 14.1797 29.8828 14.2578ZM21.9922 14.2969V14.3359C21.9922 14.4141 22.0573 14.4792 22.1875 14.5312C22.3958 14.5312 22.6302 14.4141 22.8906 14.1797V14.1406H22.2656C22.0833 14.1667 21.9922 14.2188 21.9922 14.2969ZM35.4688 14.9219C35.4688 15.026 35.7031 15.1042 36.1719 15.1562C36.276 15.0781 36.3281 14.974 36.3281 14.8438C36.3281 14.7135 36.1198 14.6094 35.7031 14.5312C35.5469 14.6354 35.4688 14.7656 35.4688 14.9219ZM27.5781 15.2344V15.3906C27.9427 15.3906 28.3333 15.1562 28.75 14.6875V14.6484L28.7109 14.6094H28.6719C28.3594 14.6094 27.9948 14.8177 27.5781 15.2344ZM36.9531 14.6875L36.8359 14.8438C36.888 14.974 36.9922 15.0391 37.1484 15.0391H37.3438L37.5391 14.8828V14.8438C37.513 14.7396 37.3828 14.6875 37.1484 14.6875H36.9531ZM32.6172 15.0781V15.1562H32.8125C33.2031 15.1042 33.3984 15.026 33.3984 14.9219V14.8438H33.125C32.7865 14.8698 32.6172 14.9479 32.6172 15.0781ZM26.2109 14.8828H26.0156L25.9375 15.1172V15.8203C25.9375 16.1328 25.8854 16.3411 25.7812 16.4453V16.6406L25.9375 17.1875V17.5C25.9375 17.7083 26.0026 17.8516 26.1328 17.9297C26.1589 17.9297 26.237 17.6302 26.3672 17.0312C26.7318 16.7448 26.9141 16.5234 26.9141 16.3672C26.9141 16.237 26.7708 15.9505 26.4844 15.5078C26.4062 15.0911 26.3151 14.8828 26.2109 14.8828ZM22.3047 15.5078V15.5859H22.6953L22.8516 15.4297V15.3906L22.6562 15.3125C22.4219 15.3906 22.3047 15.4557 22.3047 15.5078ZM36.2891 15.625L36.0547 15.5078L35.9766 15.5859V15.625L36.1719 15.7422H36.2109L36.2891 15.625ZM33.2812 15.8984L33.3594 15.9766H33.3984C33.9714 15.9766 34.2578 15.9245 34.2578 15.8203L33.9453 15.7422C33.5026 15.7943 33.2812 15.8464 33.2812 15.8984ZM27.6172 17.4219V17.5391C28.2943 17.4609 29.2318 16.901 30.4297 15.8594V15.8203H30.1953C30.0911 15.8203 29.7786 16.0026 29.2578 16.3672C28.1641 16.7057 27.6172 17.0573 27.6172 17.4219ZM36.9531 15.8984H36.9141V16.0156C36.9141 16.0938 37.0833 16.4583 37.4219 17.1094C37.4219 17.3177 37.474 17.4219 37.5781 17.4219L37.7344 17.2656V17.1094C37.7344 16.6927 37.474 16.2891 36.9531 15.8984ZM24.8047 16.3672L24.8828 16.4844H24.9609L25.0781 15.9766H24.9609C24.8828 15.9766 24.8307 16.1068 24.8047 16.3672ZM34.6484 16.6406V16.7578H35.625L35.7812 16.6406V16.4844L35.5859 16.3672H35.3906C34.8958 16.4453 34.6484 16.5365 34.6484 16.6406ZM30.7812 17.2656C31.3542 17.1615 31.6406 17.0182 31.6406 16.8359L31.5234 16.7578H31.4062C31.0156 16.7578 30.8073 16.9271 30.7812 17.2656ZM29.5312 17.7344V17.8125H29.6484C30.0651 17.474 30.2734 17.1875 30.2734 16.9531H30.1953V16.875C29.987 16.875 29.7656 17.1615 29.5312 17.7344ZM26.5234 17.3438L26.6016 17.5781C26.6016 17.7865 26.4844 17.9948 26.25 18.2031C26.3802 18.3333 26.4453 18.4635 26.4453 18.5938C26.4453 19.8958 26.5365 20.5469 26.7188 20.5469H26.7578C26.9661 20.0781 27.0703 19.4661 27.0703 18.7109C27.0443 17.7474 26.9271 17.2396 26.7188 17.1875H26.6406C26.5625 17.1875 26.5234 17.2396 26.5234 17.3438ZM37.5391 17.8516V17.9688C37.8516 19.1406 38.0469 19.7526 38.125 19.8047L38.2031 19.5312V19.1797C38.0208 18.2943 37.7995 17.8516 37.5391 17.8516ZM39.2969 17.9297H39.2578C39.3099 19.3099 39.4401 20 39.6484 20H39.7266C39.5964 18.6198 39.4531 17.9297 39.2969 17.9297ZM29.0625 18.0078L28.8281 18.3203V18.3984L28.8672 18.4766H29.0625L29.1797 18.0078H29.0625ZM27.9688 18.3984L27.8906 18.4766L27.9688 18.5938H28.125V18.4766L28.0469 18.3984H27.9688ZM39.0234 23.0078V23.0469L39.1406 23.5156H39.3359C39.3099 23.1771 39.2057 23.0078 39.0234 23.0078ZM37.5391 25.8203L37.5781 25.8594H37.6172C37.6953 25.8594 37.7344 25.7292 37.7344 25.4688V25C37.6302 25 37.5651 25.2734 37.5391 25.8203ZM37.3047 26.4453C37.4609 26.6276 37.5391 26.875 37.5391 27.1875H37.6172L37.7344 26.7188V26.0547C37.4479 26.0547 37.3047 26.1849 37.3047 26.4453ZM39.0234 26.0938H38.9453V26.2891H39.0234V26.0938ZM39.9219 26.2891L39.8438 27.0703V28.0469H39.8828C40.2214 27.6302 40.3906 27.2396 40.3906 26.875V26.8359C40.3906 26.4714 40.2344 26.2891 39.9219 26.2891ZM38.9062 28.0859V28.1641H38.9453L39.1016 27.7344V27.6562H39.0234C38.9453 27.6562 38.9062 27.7995 38.9062 28.0859ZM23.8281 28.2422L23.75 28.3984V28.4375C23.8021 28.9062 23.9714 29.1406 24.2578 29.1406H24.4922L24.6094 29.0234V28.9453C24.375 28.6589 24.2578 28.4245 24.2578 28.2422H23.8281ZM39.0234 28.7891H38.8672V28.9453L39.0234 29.1016L39.1406 29.0234V28.9453L39.0234 28.7891ZM41.1328 29.6875V29.8047C42.3047 29.8047 42.8906 29.7135 42.8906 29.5312V29.4531H42.3438C41.5365 29.4792 41.1328 29.5573 41.1328 29.6875ZM25.4688 30.0781C25.4688 30.2083 25.8073 30.2734 26.4844 30.2734C27.7865 30.2734 28.4375 30.2083 28.4375 30.0781C28.4375 29.9219 27.9948 29.8438 27.1094 29.8438C26.1198 29.8438 25.5729 29.9219 25.4688 30.0781ZM36.0547 30.1953H35.9375V30.4297L36.0547 30.5469H36.1719L36.2109 30.4297V30.3906L36.0547 30.1953ZM41.4844 30.5078V30.625C41.5365 30.7552 41.6536 30.8203 41.8359 30.8203C42.2526 30.8203 42.5 30.7292 42.5781 30.5469V30.4297C42.526 30.2734 42.3828 30.1953 42.1484 30.1953H41.9531C41.6927 30.1953 41.5365 30.2995 41.4844 30.5078ZM36.9141 31.2109C36.9922 31.4193 37.1224 31.5234 37.3047 31.5234C38.7109 31.4974 39.4141 31.4062 39.4141 31.25C39.2318 31.0156 38.9062 30.8984 38.4375 30.8984C37.4219 30.9245 36.9141 31.0286 36.9141 31.2109ZM35.9375 31.9531L35.7812 32.1094V32.1875C35.7812 32.3698 36.1328 32.4609 36.8359 32.4609H37.0312L37.3438 32.3828V32.3438C37.0833 32.0833 36.6667 31.9531 36.0938 31.9531H35.9375ZM50.1172 3.82812L51.4453 3.63281C52.3568 3.63281 53.0729 4.10156 53.5938 5.03906L53.8672 6.28906C53.8151 6.78385 53.5286 7.4349 53.0078 8.24219C52.6693 8.58073 52.1484 8.75 51.4453 8.75C49.8047 8.75 48.7891 8.5026 48.3984 8.00781C48.0078 7.48698 47.8255 6.75781 47.8516 5.82031C47.7474 5.82031 47.6953 5.79427 47.6953 5.74219V5.66406C48.4766 4.4401 49.2839 3.82812 50.1172 3.82812ZM49.3359 4.80469V4.84375C50.2214 4.73958 50.6641 4.6224 50.6641 4.49219L50.4688 4.41406C49.7135 4.54427 49.3359 4.67448 49.3359 4.80469ZM50 5.9375H50.0391L50.2734 5.97656H50.3516C50.638 5.97656 50.8203 5.8724 50.8984 5.66406L50.8594 5.58594H50.3906C50.1823 5.58594 50.0521 5.70312 50 5.9375ZM52.8125 5.58594L52.6953 5.78125V5.9375H52.7344L52.8516 5.78125V5.58594H52.8125ZM51.875 6.875V6.99219H52.0312C52.2135 6.99219 52.3568 6.90104 52.4609 6.71875V6.60156H52.3828C52.2005 6.60156 52.0312 6.69271 51.875 6.875ZM51.0156 7.57812L50.8984 7.69531V7.77344H51.6016L51.7188 7.69531L51.6016 7.57812H51.0156ZM46.0547 11.2891H46.1719C46.3802 11.4714 46.6406 11.5625 46.9531 11.5625L47.4609 11.3281C51.0026 11.3281 52.7734 11.4323 52.7734 11.6406L52.8125 11.9141V12.5781C53.0469 13.099 53.1641 13.5938 53.1641 14.0625V14.6875C52.8516 18.9323 52.6432 22.3698 52.5391 25C52.487 25.1562 52.4349 25.4297 52.3828 25.8203C52.4089 25.9245 52.526 25.9766 52.7344 25.9766H52.8516C54.2578 25.9766 54.9609 26.1458 54.9609 26.4844L54.9219 26.5625V26.7969C55.2344 27.4219 55.3906 28.4115 55.3906 29.7656L55.5469 31.3281L55.4297 31.4062L53.7109 31.4844H49.8047C46.888 31.4844 45.4297 31.25 45.4297 30.7812C45.4297 30.4948 45.3516 30.2083 45.1953 29.9219C45.2734 29.7396 45.4036 29.5964 45.5859 29.4922H45.7031C45.8073 29.5964 45.9245 29.6484 46.0547 29.6484H46.1328C46.888 29.6484 47.7865 29.5833 48.8281 29.4531V29.375C46.5885 29.2188 45.4688 29.0365 45.4688 28.8281L45.4297 28.5156V28.0859L45.3516 27.0703C45.3516 26.8099 46.3281 26.6797 48.2812 26.6797C48.5417 26.6797 48.6719 26.0938 48.6719 24.9219L49.1406 14.6484H49.0625C48.3333 14.6484 47.9688 14.5964 47.9688 14.4922C47.9688 14.4661 48.0078 14.4271 48.0859 14.375C46.5234 14.375 45.7422 14.1927 45.7422 13.8281C45.638 13.8021 45.5859 13.6979 45.5859 13.5156L45.7812 13.0469C45.7812 12.9427 45.7031 12.7995 45.5469 12.6172C45.7552 12.4089 45.8984 11.9922 45.9766 11.3672L46.0547 11.2891ZM46.6797 12.0703V12.2266H46.875C47.5521 12.2266 47.8906 12.1745 47.8906 12.0703L47.8125 11.9141H47.6953C47.0182 11.9141 46.6797 11.9661 46.6797 12.0703ZM51.9922 11.7969L51.875 11.9141L52.0312 12.0312H52.1094V11.9141L51.9922 11.7969ZM47.5391 12.6172H46.8359V12.7344C46.8359 12.8385 47.0182 12.8906 47.3828 12.8906H47.8125H47.9297H49.2188C49.6094 12.8906 49.8047 12.8255 49.8047 12.6953V12.6562C49.8047 12.526 49.0495 12.513 47.5391 12.6172ZM51.0156 12.6562L50.6641 12.6172V12.6953C50.8464 12.6953 51.0677 12.8255 51.3281 13.0859H51.4062C51.4583 13.0859 51.4844 13.0469 51.4844 12.9688H51.5625C51.6667 12.9688 51.7318 13.0859 51.7578 13.3203H51.8359L52.3828 12.9297V12.6953L51.5625 12.6562H51.0156ZM50.8594 14.8438L51.0547 15.4297L50.7812 16.1328C50.8854 16.3672 50.9766 16.4844 51.0547 16.4844H51.0938L51.1719 16.25V16.0156C51.1719 15.0781 51.3151 14.6094 51.6016 14.6094L51.7188 14.4531V14.2969L51.6016 14.1797H51.3672C51.0286 14.1797 50.8594 14.401 50.8594 14.8438ZM49.6484 18.5547L49.5312 23.5938C49.5573 23.776 49.5964 23.8672 49.6484 23.8672C49.7266 23.8672 49.7786 23.75 49.8047 23.5156L49.7656 22.9297C49.8958 22.7995 50.0391 22.2786 50.1953 21.3672V21.1328L50.1172 20.5859C50.2734 20.4557 50.3516 20.3646 50.3516 20.3125C50.2474 20.026 50.1953 19.7396 50.1953 19.4531V19.375C50.2995 19.375 50.4297 17.9167 50.5859 15C50.5078 14.7917 50.4297 14.6875 50.3516 14.6875C49.9609 14.6875 49.7266 15.9766 49.6484 18.5547ZM51.5625 15.1172L51.4062 15.1562V15.3906C51.4062 15.5469 51.4714 15.6641 51.6016 15.7422H51.7188L51.8359 15.5859V15.3906C51.7839 15.2604 51.6927 15.1693 51.5625 15.1172ZM51.3672 21.4844H51.1719C50.9635 22.4479 50.8594 23.1641 50.8594 23.6328H50.8984C51.0286 23.6328 51.1979 23.099 51.4062 22.0312V21.7578L51.3672 21.4844ZM50.625 25.1562V25.4297H50.7031C50.8333 25.3776 50.8984 25.2214 50.8984 24.9609V24.6875H50.7812C50.7292 24.6875 50.6771 24.8438 50.625 25.1562ZM50.7031 25.7422L50.5859 25.8984V26.0938H50.7031L50.8594 25.9766V25.8594L50.7422 25.7422H50.7031ZM53.8281 26.6797L53.7109 26.7188C53.8672 26.849 54.1536 26.9271 54.5703 26.9531V26.8359C54.5703 26.7318 54.401 26.6797 54.0625 26.6797H53.8281ZM53.9844 28.3203L53.5156 28.4375C53.5677 28.75 53.8021 28.9062 54.2188 28.9062H54.3359V28.7891L54.2578 28.6719C54.2578 28.6458 54.362 28.5677 54.5703 28.4375V28.2422C54.5703 28.0599 54.5182 27.9557 54.4141 27.9297H54.2578C54.1797 27.9557 54.0885 28.0859 53.9844 28.3203ZM46.5234 27.9688L46.25 28.0469V28.0859C46.4583 28.2943 47.2656 28.4115 48.6719 28.4375H48.9453C49.1536 28.4375 49.2839 28.3724 49.3359 28.2422V28.1641C48.2422 28.0339 47.3047 27.9688 46.5234 27.9688ZM50.1953 28.4375L50.3516 28.6328C50.5859 28.6328 50.7031 28.5026 50.7031 28.2422H50.5078C50.3516 28.2422 50.2474 28.3073 50.1953 28.4375ZM53.8672 29.2188L53.75 29.375V29.4531H53.8281L53.9453 29.2969V29.2188H53.8672ZM50.8594 29.4531L50.3516 29.4922H49.8047V29.6484L50.3516 29.6875L51.4844 29.6094V29.4922H51.3281L50.8594 29.4531ZM54.8438 30.7812L54.6875 30.8984V31.0156H54.9219L54.9609 30.8984L54.9219 30.7812H54.8438ZM65.2734 0C65.8464 0 66.3151 0.15625 66.6797 0.46875C66.3672 1.30208 66.1589 2.61719 66.0547 4.41406L65.7031 8.00781C65.7031 8.1901 66.224 8.28125 67.2656 8.28125C70.3385 8.28125 71.875 8.42448 71.875 8.71094C72.0052 8.71094 72.1615 8.78906 72.3438 8.94531C72.0833 9.28385 71.9531 9.53125 71.9531 9.6875V9.80469L72.0703 10.5859L71.5625 12.3047C71.5625 12.487 71.7578 12.7474 72.1484 13.0859V13.1641C71.5234 13.3724 71.0156 13.4766 70.625 13.4766C70.2083 13.4505 70 13.3854 70 13.2812V13.2031L70.3516 13.1641H70.625L70.7812 13.0078V12.9297L70.625 12.8906L68.0078 12.9297L65.8594 12.8906C65.7292 12.8906 65.5859 13.6198 65.4297 15.0781H65.3906L64.8438 14.4531L64.7266 14.8828V15.1172C64.7526 15.8464 64.8438 16.237 65 16.2891C65.1042 16.2891 65.1953 16.0547 65.2734 15.5859V15.3125H65.3906L65.4297 15.4297L65.1562 19.1797C65.4688 24.5703 65.7422 27.2656 65.9766 27.2656C66.1068 28.099 66.4323 28.5156 66.9531 28.5156C67.2396 28.6979 67.5911 28.7891 68.0078 28.7891H68.7109L71.0547 28.6719C71.1068 28.6719 71.1979 29.362 71.3281 30.7422C71.3802 31.1589 71.2891 31.4583 71.0547 31.6406C70.8464 31.849 70.4818 31.9531 69.9609 31.9531L66.9531 32.0312C65.3125 32.0312 63.9323 31.5755 62.8125 30.6641C62.0833 30.4036 61.7188 29.6224 61.7188 28.3203C61.6667 27.6172 61.5755 25.5339 61.4453 22.0703L61.9141 16.7578L62.0312 14.4531V14.1406C61.849 13.0469 61.5365 12.5 61.0938 12.5H59.9219H58.5547C58.1641 12.5 57.7734 12.5911 57.3828 12.7734C57.1224 12.7474 56.7969 12.3958 56.4062 11.7188L57.1875 8.24219C57.1875 8.13802 58.763 8.07292 61.9141 8.04688C61.9141 7.70833 62.0964 7.27865 62.4609 6.75781C62.5651 2.69531 62.7083 0.664062 62.8906 0.664062V0.546875C62.8906 0.494792 62.8255 0.46875 62.6953 0.46875V0.351562C62.6953 0.273438 63.5547 0.15625 65.2734 0ZM63.7891 1.05469H63.75V1.28906H63.8672V1.13281L63.7891 1.05469ZM65.4688 1.13281L65.3125 1.28906V1.36719L65.4297 2.26562H65.5078C65.8203 1.95312 65.9766 1.67969 65.9766 1.44531V1.28906L65.8594 1.13281H65.4688ZM64.0625 2.57812L63.9453 2.46094C63.8932 2.72135 63.8672 3.0599 63.8672 3.47656V3.63281H63.9453L64.0625 2.96875V2.57812ZM64.1797 4.21875H64.1016L63.9453 8.08594V8.125L64.0625 8.24219H64.1406C64.3229 8.24219 64.4141 7.91667 64.4141 7.26562V6.36719L64.3359 4.45312C64.2839 4.29688 64.2318 4.21875 64.1797 4.21875ZM57.4219 8.71094C57.4219 8.89323 57.5391 8.98438 57.7734 8.98438H58.3594C59.4271 8.98438 60.4167 8.93229 61.3281 8.82812V8.75C61.3281 8.61979 60.6901 8.55469 59.4141 8.55469H57.7734C57.5391 8.55469 57.4219 8.60677 57.4219 8.71094ZM69.6094 8.55469L69.1016 8.75H68.6328H67.9688V8.86719C68.5417 9.02344 69.0365 9.10156 69.4531 9.10156H70.3516C70.4036 9.10156 70.4297 9.0625 70.4297 8.98438C70.3776 8.69792 70.2344 8.55469 70 8.55469H69.6094ZM70.7031 8.94531L70.5859 9.02344V9.10156L70.7031 9.14062C70.9635 9.14062 71.1068 9.08854 71.1328 8.98438V8.94531H70.7031ZM58.0469 9.45312L57.9688 9.53125V9.76562C57.9688 10.026 58.8411 10.1562 60.5859 10.1562C61.4714 10.1562 61.9141 10.0911 61.9141 9.96094C61.9141 9.64844 60.7682 9.47917 58.4766 9.45312H58.0469ZM66.3672 9.80469L66.25 9.92188V9.96094C66.25 10.0911 66.7188 10.1693 67.6562 10.1953L68.3203 10.1562L69.2188 10.3125H69.375C69.5573 10.3125 69.6484 10.2344 69.6484 10.0781H69.6094L66.6406 9.80469H66.3672ZM70.5859 10.6641L70.4297 10.8203V10.8594L70.5859 10.9766H70.7812C71.0156 10.9766 71.1589 10.8984 71.2109 10.7422L71.0938 10.6641H70.5859ZM58.3984 10.8203L58.2422 10.9375C58.2422 11.0417 58.3073 11.0938 58.4375 11.0938L59.4141 11.1328L60.4688 11.0938L60.5078 11.0547V10.9766C60.1953 10.8724 59.6094 10.8203 58.75 10.8203H58.3984ZM61.4453 11.5625L58.2422 11.4453V11.5234C58.2422 11.7057 59.2318 11.7969 61.2109 11.7969L61.5234 11.7188V11.6797L61.4453 11.5625ZM67.0312 11.6797H66.8359V11.7969C66.862 11.849 67.3177 11.9792 68.2031 12.1875H68.2812V12.1094C67.8646 11.8229 67.4479 11.6797 67.0312 11.6797ZM69.0234 12.0703C69.7266 12.3047 70.3516 12.4219 70.8984 12.4219L71.0547 12.2656V12.0312L70.9375 11.9141H70.0781C69.375 11.9141 69.0234 11.9661 69.0234 12.0703ZM63.5938 13.4766V13.7891L63.7109 13.9062C63.8151 13.8802 63.8672 13.7891 63.8672 13.6328V13.4766L63.7891 13.2031H63.75C63.6458 13.2292 63.5938 13.3203 63.5938 13.4766ZM65.0391 14.1797L64.8438 14.0234V14.1406L65 14.2969H65.0391V14.1797ZM63.7891 14.2578H63.7109L63.6719 14.4531V14.6484L63.7109 14.8828H63.8672V14.5312V14.3359L63.7891 14.2578ZM63.8672 16.9531H63.75V17.2656L63.8672 17.4219H63.9453V17.2656L63.8672 16.9531ZM61.9922 21.9141L62.1094 23.0078L62.0703 24.375L62.1094 24.7656H62.2266C62.3828 24.7656 62.4609 24.1536 62.4609 22.9297V22.0312C62.4609 20.8333 62.4089 20.2344 62.3047 20.2344C62.1224 20.2344 62.0182 20.7943 61.9922 21.9141ZM64.5312 25H64.4531L64.4141 25.2734V25.5859C64.4141 25.7682 64.4661 25.8724 64.5703 25.8984H64.6484C64.7526 25.8724 64.8047 25.7812 64.8047 25.625C64.7786 25.2083 64.6875 25 64.5312 25ZM64.8438 26.6797L64.6875 27.1094C64.6875 27.7083 64.8177 28.0859 65.0781 28.2422L65.1562 28.0859V27.7344C65.1302 27.0833 65.026 26.7318 64.8438 26.6797ZM63.3203 26.9531H63.2031V27.5391L63.2812 27.7734H63.3203L63.3984 27.6953V27.0312L63.3203 26.9531ZM64.4531 29.4141V29.4531V29.6875C64.4792 29.7917 64.5703 29.8958 64.7266 30H65V29.9219C65 29.6354 64.8177 29.4661 64.4531 29.4141ZM68.7891 30.1953H68.9453C69.9089 30.0391 70.3906 29.8698 70.3906 29.6875L70.3125 29.6094C69.2969 29.8698 68.7891 30.0651 68.7891 30.1953ZM63.4766 29.6484H63.3984V29.8047C63.4766 30.4557 63.763 30.7812 64.2578 30.7812H64.6484L64.7266 30.6641V30.625C64.7266 30.5729 64.4922 30.4818 64.0234 30.3516L63.4766 29.6484Z" fill="black"/>
</svg>
